<svg width="41" height="12" viewBox="0 0 41 12" fill="none" xmlns="http://www.w3.org/2000/svg">
<path d="M0 11.7412L0.400261 0.0181528H0.778643L8.93538 9.95101H9.03473L8.65861 0.0181528H9.78462L9.38982 11.7412H9.00996L0.854646 1.8101H0.755293L1.126 11.7412H0Z" fill="white"/>
<path d="M25.0297 12C24.1898 12 23.4611 11.8025 22.8436 11.4074C22.226 11 21.7567 10.4444 21.4355 9.74074C21.1144 9.02469 20.9538 8.22222 20.9538 7.33333C20.9538 6.88889 20.9909 6.43827 21.065 5.98148C21.2626 4.83333 21.6702 3.80864 22.2878 2.90741C22.9053 1.99383 23.6525 1.28395 24.5295 0.777778C25.4187 0.259259 26.3512 0 27.327 0C28.2039 0 28.9511 0.203704 29.5687 0.611111C30.1986 1.00617 30.6741 1.55556 30.9952 2.25926C31.3164 2.95062 31.4769 3.74074 31.4769 4.62963C31.4769 4.98765 31.4337 5.43827 31.3472 5.98148C31.1373 7.12963 30.7173 8.16667 30.0874 9.09259C29.4575 10.0062 28.6979 10.7222 27.8087 11.2407C26.9194 11.7469 25.9931 12 25.0297 12ZM25.8078 11.5185C26.9194 11.5185 27.8704 11.1296 28.6609 10.3519C29.4637 9.56173 30.0195 8.4321 30.3283 6.96296C30.4641 6.30864 30.5321 5.69753 30.5321 5.12963C30.5321 4.21605 30.3715 3.40741 30.0504 2.7037C29.7293 1.98765 29.2661 1.4321 28.6609 1.03704C28.068 0.641975 27.3702 0.444445 26.5674 0.444445C25.4187 0.444445 24.4492 0.851852 23.6587 1.66667C22.8683 2.48148 22.3372 3.59259 22.0654 5C21.9543 5.59259 21.8987 6.16049 21.8987 6.7037C21.8987 7.61728 22.0469 8.43827 22.3433 9.16667C22.6521 9.89506 23.1029 10.4691 23.6958 10.8889C24.2886 11.3086 24.9926 11.5185 25.8078 11.5185Z" fill="white"/>
<path d="M14.3785 12C13.546 12 12.8237 11.8025 12.2116 11.4074C11.5995 11 11.1342 10.4444 10.8159 9.74074C10.4976 9.02469 10.3385 8.22222 10.3385 7.33333C10.3385 6.88889 10.3752 6.43827 10.4486 5.98148C10.6445 4.83333 11.0485 3.80864 11.6607 2.90741C12.2728 1.99383 13.0135 1.28395 13.8827 0.777778C14.7642 0.259259 15.6885 0 16.6557 0C17.5249 0 18.2656 0.203704 18.8777 0.611111C19.5021 1.00617 19.9735 1.55556 20.2918 2.25926C20.6101 2.95062 20.7692 3.74074 20.7692 4.62963C20.7692 4.98765 20.7264 5.43827 20.6407 5.98148C20.4326 7.12963 20.0163 8.16667 19.3919 9.09259C18.7676 10.0062 18.0146 10.7222 17.1332 11.2407C16.2517 11.7469 15.3335 12 14.3785 12ZM15.1498 11.5185C16.2517 11.5185 17.1944 11.1296 17.9779 10.3519C18.7737 9.56173 19.3246 8.4321 19.6307 6.96296C19.7653 6.30864 19.8327 5.69753 19.8327 5.12963C19.8327 4.21605 19.6735 3.40741 19.3552 2.7037C19.0369 1.98765 18.5778 1.4321 17.9779 1.03704C17.3903 0.641975 16.6985 0.444445 15.9028 0.444445C14.7642 0.444445 13.8031 0.851852 13.0196 1.66667C12.2361 2.48148 11.7096 3.59259 11.4403 5C11.3301 5.59259 11.275 6.16049 11.275 6.7037C11.275 7.61728 11.4219 8.43827 11.7158 9.16667C12.0218 9.89506 12.4687 10.4691 13.0563 10.8889C13.644 11.3086 14.3418 11.5185 15.1498 11.5185Z" fill="white"/>
<path d="M39.2063 11.7412L33.7196 5.70678L38.791 0.0181528H40.2256L34.7372 5.23968L40.7077 11.7412H39.2063ZM32.0769 11.7412V0.0181528H33.2113V11.7412H32.0769Z" fill="white"/>
</svg>

